<?xml version="1.0" encoding="utf-8"?>
<!-- Generator: Adobe Illustrator 23.1.1, SVG Export Plug-In . SVG Version: 6.00 Build 0)  -->
<svg version="1.1" id="Layer_1" xmlns="http://www.w3.org/2000/svg" xmlns:xlink="http://www.w3.org/1999/xlink" x="0px" y="0px"
	 viewBox="0 0 256 256" style="enable-background:new 0 0 256 256;" xml:space="preserve">
<style type="text/css">
	.st0{fill:#FFFFFF;}
	.st1{fill:#FFC234;stroke:#000000;stroke-miterlimit:10;}
	.st2{fill:#FFC234;}
	.st3{fill:none;stroke:#000000;stroke-width:7;stroke-linecap:round;stroke-linejoin:round;stroke-miterlimit:10;}
	.st4{fill:none;stroke:#FFFFFF;stroke-width:7;stroke-linecap:round;stroke-linejoin:round;stroke-miterlimit:10;}
	.st5{fill:#FFFFFF;stroke:#FFFFFF;stroke-width:7;stroke-linejoin:round;stroke-miterlimit:10;}
	.st6{fill:#FFFFFF;stroke:#FFFFFF;stroke-width:7;stroke-linecap:round;stroke-linejoin:round;stroke-miterlimit:10;}
</style>
<g>
	<path class="st0" d="M37.3,250.7c-1.9,0-3.5-1.6-3.5-3.5V19.6c0-1.9,1.6-3.5,3.5-3.5h206.9c1.9,0,3.5,1.6,3.5,3.5v227.6
		c0,1.9-1.6,3.5-3.5,3.5H37.3z"/>
	<path d="M244.2,19.6v227.6H37.3V19.6H244.2 M244.2,12.6H37.3c-3.9,0-7,3.1-7,7v227.6c0,3.9,3.1,7,7,7h206.9c3.9,0,7-3.1,7-7V19.6
		C251.2,15.7,248.1,12.6,244.2,12.6L244.2,12.6z"/>
</g>
<rect x="-73.4" y="24" class="st1" width="19.5" height="19.5"/>
<g>
	<path class="st2" d="M26.8,242.1c-1.9,0-3.5-1.6-3.5-3.5V11c0-1.9,1.6-3.5,3.5-3.5h206.9c1.9,0,3.5,1.6,3.5,3.5v227.6
		c0,1.9-1.6,3.5-3.5,3.5H26.8z"/>
	<path d="M233.6,11v227.6H26.8V11H233.6 M233.6,4H26.8c-3.9,0-7,3.1-7,7v227.6c0,3.9,3.1,7,7,7h206.9c3.9,0,7-3.1,7-7V11
		C240.6,7.1,237.5,4,233.6,4L233.6,4z"/>
</g>
<g>
	<path class="st0" d="M26.6,242.1c-1.9,0-3.5-1.6-3.5-3.5V11.1c0-1.9,1.6-3.5,3.5-3.5h27.6c1.9,0,3.5,1.6,3.5,3.5v227.5
		c0,1.9-1.6,3.5-3.5,3.5H26.6z"/>
	<path d="M54.1,11.1v227.5H26.6V11.1H54.1 M54.1,4.1H26.6c-3.9,0-7,3.1-7,7v227.5c0,3.9,3.1,7,7,7h27.6c3.9,0,7-3.1,7-7V11.1
		C61.1,7.3,58,4.1,54.1,4.1L54.1,4.1z"/>
</g>
<path class="st3" d="M38,24.2c0,2.7-7.3,5-16.3,5s-16.3-2.2-16.3-5s7.3-5,16.3-5"/>
<path class="st3" d="M38,43.5c0,2.7-7.3,5-16.3,5s-16.3-2.2-16.3-5c0-2.7,7.3-5,16.3-5"/>
<path class="st3" d="M38,62.9c0,2.7-7.3,5-16.3,5s-16.3-2.2-16.3-5c0-2.7,7.3-5,16.3-5"/>
<path class="st3" d="M38,81.8c0,2.7-7.3,5-16.3,5s-16.3-2.2-16.3-5c0-2.7,7.3-5,16.3-5"/>
<path class="st3" d="M38,100.6c0,2.7-7.3,5-16.3,5s-16.3-2.2-16.3-5c0-2.7,7.3-5,16.3-5"/>
<path class="st3" d="M38,119.9c0,2.7-7.3,5-16.3,5s-16.3-2.2-16.3-5c0-2.7,7.3-5,16.3-5"/>
<path class="st3" d="M38,139.3c0,2.7-7.3,5-16.3,5s-16.3-2.2-16.3-5s7.3-5,16.3-5"/>
<path class="st3" d="M38,158.2c0,2.7-7.3,5-16.3,5s-16.3-2.2-16.3-5s7.3-5,16.3-5"/>
<path class="st3" d="M38,176.1c0,2.7-7.3,5-16.3,5s-16.3-2.2-16.3-5c0-2.7,7.3-5,16.3-5"/>
<path class="st3" d="M38,195.3c0,2.7-7.3,5-16.3,5s-16.3-2.2-16.3-5c0-2.7,7.3-5,16.3-5"/>
<path class="st3" d="M38,214.8c0,2.7-7.3,5-16.3,5s-16.3-2.2-16.3-5s7.3-5,16.3-5"/>
<polyline class="st4" points="84.7,184.7 161.9,107.5 161.9,75.9 195.2,42.7 "/>
<polyline class="st4" points="205.5,53 173.3,85.2 161.9,107.5 193,107.5 226.5,74 "/>
<polyline class="st4" points="161.9,107.5 183.8,95.7 216,63.5 "/>
<path class="st5" d="M194.5,106.2c-7.4,7.4-23.9,9.9-32.6,1.3c-8.6-8.6-6.1-25.2,1.3-32.6"/>
<line class="st4" x1="205.9" y1="180.3" x2="128.6" y2="103.1"/>
<path class="st4" d="M56.9,82.3"/>
<path class="st4" d="M56.9,82.3"/>
<ellipse transform="matrix(0.7071 -0.7071 0.7071 0.7071 -25.274 95.6981)" class="st6" cx="102.9" cy="78.4" rx="23.2" ry="33.5"/>
</svg>
